<mxfile host="app.diagrams.net" modified="2021-07-03T07:38:32.060Z" agent="5.0 (Windows NT 10.0; Win64; x64) AppleWebKit/537.36 (KHTML, like Gecko) Chrome/91.0.4472.124 Safari/537.36" etag="u2lsZeKN1DGUikGwzMt4" version="14.7.6" type="github">
  <diagram id="fAFXazil0uDPCLIDNfto" name="第 1 页">
    <mxGraphModel dx="2000" dy="1162" grid="1" gridSize="10" guides="1" tooltips="1" connect="1" arrows="1" fold="1" page="1" pageScale="1" pageWidth="827" pageHeight="1169" math="0" shadow="0">
      <root>
        <mxCell id="0" />
        <mxCell id="1" parent="0" />
        <mxCell id="ICD-MJ7A61OE4X833vMA-1" value="&lt;font style=&quot;font-size: 18px&quot;&gt;使用步骤&lt;/font&gt;" style="rounded=0;whiteSpace=wrap;html=1;" vertex="1" parent="1">
          <mxGeometry x="120" y="470" width="120" height="60" as="geometry" />
        </mxCell>
        <mxCell id="ICD-MJ7A61OE4X833vMA-2" value="" style="shape=curlyBracket;whiteSpace=wrap;html=1;rounded=1;" vertex="1" parent="1">
          <mxGeometry x="250" y="350" width="20" height="300" as="geometry" />
        </mxCell>
        <mxCell id="ICD-MJ7A61OE4X833vMA-3" value="" style="line;strokeWidth=2;html=1;" vertex="1" parent="1">
          <mxGeometry x="280" y="370" width="340" height="10" as="geometry" />
        </mxCell>
        <mxCell id="ICD-MJ7A61OE4X833vMA-4" value="" style="line;strokeWidth=2;html=1;" vertex="1" parent="1">
          <mxGeometry x="270" y="495" width="410" height="10" as="geometry" />
        </mxCell>
        <mxCell id="ICD-MJ7A61OE4X833vMA-5" value="" style="line;strokeWidth=2;html=1;" vertex="1" parent="1">
          <mxGeometry x="280" y="640" width="390" height="10" as="geometry" />
        </mxCell>
        <mxCell id="ICD-MJ7A61OE4X833vMA-6" value="&lt;font style=&quot;font-size: 18px&quot;&gt;1.创建被观察者（Observable） &amp;amp; 生产事件&lt;/font&gt;" style="text;html=1;strokeColor=none;fillColor=none;align=left;verticalAlign=middle;whiteSpace=wrap;rounded=0;" vertex="1" parent="1">
          <mxGeometry x="270" y="350" width="370" height="20" as="geometry" />
        </mxCell>
        <mxCell id="ICD-MJ7A61OE4X833vMA-7" value="&lt;span style=&quot;font-size: 18px&quot;&gt;2.创建观察者（Observer）并定义响应事件的行为&lt;/span&gt;" style="text;html=1;strokeColor=none;fillColor=none;align=left;verticalAlign=middle;whiteSpace=wrap;rounded=0;" vertex="1" parent="1">
          <mxGeometry x="280" y="475" width="400" height="20" as="geometry" />
        </mxCell>
        <mxCell id="ICD-MJ7A61OE4X833vMA-8" value="&lt;span style=&quot;font-size: 18px&quot;&gt;3.通过订阅（Subscribe）连接观察者和被观察者&lt;/span&gt;" style="text;html=1;strokeColor=none;fillColor=none;align=left;verticalAlign=middle;whiteSpace=wrap;rounded=0;" vertex="1" parent="1">
          <mxGeometry x="280" y="620" width="400" height="20" as="geometry" />
        </mxCell>
      </root>
    </mxGraphModel>
  </diagram>
</mxfile>
